<svg xmlns="http://www.w3.org/2000/svg" viewBox="0 0 1200 675" role="img" aria-labelledby="title desc">
  <title id="title">I Said So project preview</title>
  <desc id="desc">A dark interface-style preview card for a prediction timestamp platform.</desc>
  <rect width="1200" height="675" fill="#111827"/>
  <rect x="72" y="64" width="1056" height="547" rx="18" fill="#f8fafc"/>
  <rect x="72" y="64" width="1056" height="96" rx="18" fill="#0f172a"/>
  <rect x="72" y="135" width="1056" height="25" fill="#0f172a"/>
  <circle cx="126" cy="112" r="12" fill="#f97316"/>
  <circle cx="166" cy="112" r="12" fill="#22c55e"/>
  <circle cx="206" cy="112" r="12" fill="#38bdf8"/>
  <text x="600" y="123" text-anchor="middle" font-family="Arial, sans-serif" font-size="34" font-weight="700" fill="#f8fafc">我早说了</text>
  <rect x="128" y="212" width="416" height="250" rx="14" fill="#e2e8f0"/>
  <text x="162" y="268" font-family="Arial, sans-serif" font-size="32" font-weight="700" fill="#0f172a">Prediction Locked</text>
  <text x="162" y="318" font-family="Arial, sans-serif" font-size="23" fill="#334155">Submitted before the result</text>
  <text x="162" y="356" font-family="Arial, sans-serif" font-size="23" fill="#334155">Timestamped and verifiable</text>
  <rect x="162" y="398" width="190" height="44" rx="22" fill="#0f172a"/>
  <text x="257" y="428" text-anchor="middle" font-family="Arial, sans-serif" font-size="22" font-weight="700" fill="#f8fafc">Append-only</text>
  <rect x="604" y="212" width="468" height="84" rx="14" fill="#ffffff" stroke="#cbd5e1"/>
  <rect x="632" y="240" width="66" height="28" rx="14" fill="#dcfce7"/>
  <rect x="724" y="240" width="296" height="16" rx="8" fill="#94a3b8"/>
  <rect x="724" y="266" width="210" height="14" rx="7" fill="#cbd5e1"/>
  <rect x="604" y="326" width="468" height="84" rx="14" fill="#ffffff" stroke="#cbd5e1"/>
  <rect x="632" y="354" width="66" height="28" rx="14" fill="#fee2e2"/>
  <rect x="724" y="354" width="320" height="16" rx="8" fill="#94a3b8"/>
  <rect x="724" y="380" width="238" height="14" rx="7" fill="#cbd5e1"/>
  <rect x="604" y="440" width="468" height="84" rx="14" fill="#ffffff" stroke="#cbd5e1"/>
  <rect x="632" y="468" width="66" height="28" rx="14" fill="#fef3c7"/>
  <rect x="724" y="468" width="278" height="16" rx="8" fill="#94a3b8"/>
  <rect x="724" y="494" width="188" height="14" rx="7" fill="#cbd5e1"/>
  <text x="128" y="556" font-family="Arial, sans-serif" font-size="24" font-weight="700" fill="#0f172a">Public judgment records, not hindsight.</text>
</svg>
